<svg width="1000.0025599999999" height="1000.0025599999999" xmlns="http://www.w3.org/2000/svg">

 <g id="imagebot_2">
  <path d="M 5.6255 20.907 L 5.6255 39.093" transform="translate(-0.310864 -15.907) matrix(-1 0 0 1 60 0)" stroke-width="10" stroke-linejoin="round" stroke-linecap="round" stroke="#ffffff" fill="none" id="imagebot_6"/>
  <path d="M 55.186 31.209 L 4.081 31.209" transform="translate(-0.310864 -15.907) matrix(0.9539 0 0 0.92817 1.732 1.0331)" stroke-width="10.628" stroke-linejoin="round" stroke-linecap="round" stroke="#ffffff" fill="none" id="imagebot_5"/>
  <path d="M 5.6255 20.907 L 5.6255 39.093" transform="rotate(90 358.647 167.61) matrix(-1 0 0 1 364.272 137.61)" stroke-width="5" stroke-linejoin="round" stroke-linecap="round" stroke="#000000" fill="none" id="imagebot_3"/>
  <title>imagebot_2</title>
  <path d="M 5.6255 20.907 L 5.6255 39.093" transform="rotate(99.3124 394.511 170.706) matrix(-1 0 0 1 400.136 140.706)" stroke-width="5" stroke-linejoin="round" stroke-linecap="round" stroke="#000000" fill="none" id="imagebot_8"/>
  <path d="M 5.6255 20.907 L 5.6255 39.093" transform="rotate(111.826 424.983 180.698) matrix(-1 0 0 1 430.608 150.698)" stroke-width="5" stroke-linejoin="round" stroke-linecap="round" stroke="#000000" fill="none" id="imagebot_9"/>
  <path d="M 5.6255 20.907 L 5.6255 39.093" transform="rotate(124.139 454.679 196.058) matrix(-1 0 0 1 460.304 166.058)" stroke-width="5" stroke-linejoin="round" stroke-linecap="round" stroke="#000000" fill="none" id="imagebot_10"/>
  <path d="M 5.6255 20.907 L 5.6255 39.093" transform="rotate(133.642 478.743 215.514) matrix(-1 0 0 1 484.368 185.514)" stroke-width="5" stroke-linejoin="round" stroke-linecap="round" stroke="#000000" fill="none" id="imagebot_11"/>
  <path d="M 5.6255 20.907 L 5.6255 39.093" transform="rotate(143.153 499.223 239.578) matrix(-1 0 0 1 504.848 209.578)" stroke-width="5" stroke-linejoin="round" stroke-linecap="round" stroke="#000000" fill="none" id="imagebot_12"/>
  <path d="M 5.6255 20.907 L 5.6255 39.093" transform="rotate(156.649 515.095 268.762) matrix(-1 0 0 1 520.72 238.762)" stroke-width="5" stroke-linejoin="round" stroke-linecap="round" stroke="#000000" fill="none" id="imagebot_13"/>
  <path d="M 5.6255 20.907 L 5.6255 39.093" transform="rotate(166.506 525.846 301.018) matrix(-1 0 0 1 531.472 271.018)" stroke-width="5" stroke-linejoin="round" stroke-linecap="round" stroke="#000000" fill="none" id="imagebot_14"/>
  <path d="M 5.6255 20.907 L 5.6255 39.093" transform="rotate(179.993 529.942 334.298) matrix(-1 0 0 1 535.568 304.298)" stroke-width="5" stroke-linejoin="round" stroke-linecap="round" stroke="#000000" fill="none" id="imagebot_23"/>
 </g>
 <metadata>image/svg+xmlOpenclipart</metadata>
</svg>